<svg xmlns="http://www.w3.org/2000/svg" viewBox="0 0 512 512"><rect width="512" height="512" rx="115" fill="#6C3CE9"/><g transform="translate(73.60000000000002,73.60000000000002) scale(7.6)"><g transform="translate(2.987,1.963) scale(0.031450)"><g transform="translate(0.000000,1408.000000) scale(0.100000,-0.100000)"><path d="M4560 13400 l-65 -40 -135 0 -135 0 -65 -40 c-55 -34 -73 -40 -120 -40 -47 0 -65 -6 -120 -40 -55 -34 -73 -40 -120 -40 -47 0 -65 -6 -120 -40 -56 -34 -73 -40 -121 -40 -48 0 -65 -5 -109 -35 -28 -19 -70 -40 -93 -46 -23 -6 -58 -24 -77 -39 -19 -15 -55 -33 -80 -40 -25 -7 -61 -25 -80 -40 -19 -15 -55 -33 -80 -40 -25 -7 -61 -25 -80 -40 -19 -15 -55 -33 -80 -40 -25 -7 -61 -25 -81 -40 -19 -16 -56 -34 -80 -40 -37 -9 -66 -31 -159 -120 -98 -93 -121 -111 -163 -121 -45 -11 -70 -33 -416 -379 -353 -351 -369 -369 -380 -418 -10 -40 -26 -64 -81 -122 -54 -57 -71 -82 -80 -120 -9 -38 -26 -63 -80 -120 -52 -55 -71 -82 -80 -118 -6 -25 -24 -62 -40 -81 -15 -20 -33 -56 -40 -81 -7 -25 -25 -61 -40 -80 -15 -19 -33 -55 -40 -80 -7 -25 -25 -61 -40 -80 -15 -19 -33 -55 -40 -79 -6 -25 -27 -65 -46 -89 -31 -41 -34 -51 -34 -112 0 -62 -3 -70 -40 -120 -37 -50 -40 -58 -40 -120 0 -62 -3 -71 -37 -116 -38 -49 -38 -50 -43 -164 -5 -114 -6 -117 -40 -160 l-35 -44 -5 -196 -5 -196 -35 -44 -35 -44 0 -396 0 -396 35 -44 35 -44 5 -196 5 -196 35 -44 c34 -43 35 -46 40 -160 5 -114 5 -115 43 -164 34 -45 37 -54 37 -116 0 -62 3 -70 40 -120 37 -50 40 -58 40 -120 0 -61 3 -71 34 -112 19 -24 40 -64 46 -89 7 -24 25 -60 40 -79 15 -19 33 -55 40 -80 7 -25 25 -61 40 -81 16 -19 34 -56 40 -81 9 -36 28 -63 80 -118 54 -57 71 -82 80 -120 9 -38 26 -63 80 -120 55 -58 71 -82 81 -122 11 -49 29 -68 499 -538 458 -457 491 -488 536 -499 36 -9 66 -29 124 -81 53 -48 88 -72 120 -80 25 -7 61 -25 80 -40 19 -15 55 -33 80 -40 31 -8 67 -32 120 -80 53 -48 89 -72 120 -80 25 -7 61 -25 80 -40 19 -15 54 -33 77 -39 23 -6 65 -27 93 -46 45 -30 60 -35 110 -35 50 0 65 -5 110 -35 28 -19 69 -39 90 -45 21 -6 62 -26 90 -45 50 -34 55 -35 149 -35 95 0 97 -1 161 -40 64 -39 67 -40 160 -40 93 0 96 -1 160 -40 l65 -40 1776 0 1777 0 52 35 c29 20 72 40 96 46 37 10 67 35 196 163 202 200 198 193 198 276 0 62 3 71 38 116 l37 49 0 155 0 155 -37 49 c-35 45 -38 54 -38 116 0 61 -3 71 -35 112 -19 25 -40 67 -46 94 -11 42 -28 63 -141 175 -110 109 -135 128 -175 138 -26 7 -63 25 -82 41 -20 15 -55 33 -78 39 -23 6 -65 27 -93 46 l-52 35 -1457 0 -1456 0 -65 40 c-64 39 -67 40 -160 40 -93 0 -96 1 -160 40 -55 34 -73 40 -120 40 -47 0 -65 6 -120 40 -56 34 -73 40 -121 40 -48 0 -65 5 -109 35 -28 19 -70 40 -93 46 -28 7 -66 33 -117 79 -56 50 -88 72 -121 80 -37 9 -66 31 -159 120 -96 92 -122 111 -161 120 -39 10 -63 27 -137 99 -78 77 -91 95 -102 140 -11 45 -24 64 -120 161 -94 96 -109 116 -120 159 -9 38 -25 63 -67 107 -92 97 -93 99 -93 174 0 61 -3 71 -34 112 -19 24 -40 64 -46 88 -6 24 -27 64 -46 88 -31 41 -34 51 -34 112 0 62 -3 71 -37 116 l-38 49 0 515 0 516 35 44 c34 43 35 46 40 160 5 114 5 115 43 164 34 45 37 54 37 116 0 61 3 71 34 112 19 24 40 64 46 89 7 24 25 60 40 80 16 19 34 57 41 83 10 39 28 64 119 156 96 98 109 116 120 162 12 48 24 63 181 218 149 148 174 169 216 179 35 9 66 29 123 81 53 48 88 72 120 80 25 7 61 25 80 40 19 15 55 33 80 40 25 7 61 25 80 40 19 15 54 33 77 39 23 6 65 27 93 46 44 30 61 35 109 35 48 0 65 6 121 40 55 34 73 40 120 40 47 0 65 6 120 40 l65 40 3535 0 3535 0 65 40 c56 34 73 40 121 40 49 0 65 5 109 35 29 20 72 40 96 46 33 9 62 30 132 98 75 74 91 95 101 136 7 27 25 65 41 84 15 20 33 56 40 81 7 25 26 63 44 84 l31 40 0 276 0 275 -37 49 c-35 45 -38 54 -38 116 0 55 -4 73 -22 96 -39 50 -301 306 -333 325 -19 12 -49 19 -85 19 -47 0 -65 6 -120 40 l-65 40 -3655 0 -3655 0 -65 -40z M5370 9645 c-28 -19 -70 -40 -93 -46 -23 -6 -58 -24 -78 -39 -19 -16 -56 -34 -81 -40 -68 -17 -141 -91 -157 -158 -10 -39 -25 -64 -68 -108 -92 -97 -93 -99 -93 -174 0 -62 -3 -71 -37 -116 l-38 -49 0 -195 0 -196 31 -40 c18 -21 37 -59 44 -84 7 -25 25 -61 40 -81 16 -19 34 -57 41 -84 11 -43 27 -63 141 -176 107 -105 136 -129 172 -138 24 -6 67 -26 96 -46 l52 -35 1417 0 1416 0 65 -40 65 -40 135 0 135 0 65 -40 c56 -34 73 -40 121 -40 48 0 65 -5 109 -35 28 -19 69 -39 90 -45 21 -6 62 -26 90 -45 44 -29 61 -35 107 -35 67 0 80 -7 168 -85 49 -43 85 -67 115 -75 25 -7 61 -25 81 -40 19 -16 57 -34 83 -41 44 -11 72 -37 375 -339 313 -312 329 -329 340 -377 10 -41 26 -65 81 -123 51 -54 71 -82 79 -117 7 -25 27 -66 46 -91 32 -41 35 -51 35 -112 0 -62 3 -70 40 -120 37 -50 40 -58 40 -120 0 -62 3 -71 38 -116 l37 -49 5 -155 5 -156 35 -44 35 -44 0 -196 0 -196 -35 -44 -35 -44 -5 -156 -5 -156 -35 -44 c-34 -43 -35 -46 -40 -160 -5 -111 -6 -117 -37 -156 -17 -21 -36 -59 -43 -84 -7 -25 -25 -61 -40 -80 -15 -19 -33 -55 -40 -80 -7 -25 -25 -61 -40 -81 -16 -19 -34 -57 -41 -84 -11 -45 -34 -70 -340 -375 -303 -302 -331 -328 -375 -339 -36 -9 -66 -29 -124 -81 -53 -48 -88 -72 -120 -80 -25 -7 -61 -25 -80 -40 -19 -15 -54 -33 -77 -39 -23 -6 -65 -27 -93 -46 -44 -30 -61 -35 -109 -35 -48 0 -65 -6 -121 -40 -64 -39 -67 -40 -160 -40 -93 0 -96 -1 -160 -40 l-65 -40 -3575 0 -3575 0 -65 -40 c-54 -33 -74 -40 -118 -40 -66 0 -79 -7 -167 -85 -46 -41 -85 -67 -112 -74 -54 -15 -70 -32 -84 -86 -8 -31 -27 -61 -66 -102 -92 -96 -93 -98 -93 -173 0 -62 -3 -71 -37 -116 l-38 -49 0 -195 0 -196 31 -40 c18 -21 37 -59 44 -84 7 -25 25 -61 40 -81 16 -19 34 -57 41 -84 11 -43 27 -63 141 -176 107 -105 136 -129 172 -138 24 -6 67 -26 96 -46 l52 -35 3897 0 3896 0 65 40 c64 39 67 40 160 40 93 0 96 1 160 40 55 34 73 40 120 40 47 0 65 6 120 40 56 34 73 40 121 40 48 0 65 5 109 35 28 19 70 40 93 46 23 6 58 24 77 39 19 15 55 33 80 40 25 7 61 25 80 40 19 15 55 33 80 40 25 7 61 25 80 40 19 15 55 33 80 40 25 7 61 25 80 40 19 15 55 33 80 40 32 8 67 32 120 80 58 52 88 72 124 81 45 11 78 42 536 499 470 470 488 489 499 538 10 40 26 64 81 122 54 57 71 82 80 120 9 38 26 63 80 120 51 54 71 82 79 117 7 25 27 66 46 91 32 41 35 51 35 112 0 61 3 71 34 112 19 24 40 64 46 88 6 24 27 64 46 88 31 41 34 51 34 112 0 62 3 70 40 120 37 50 40 58 40 120 0 62 3 71 38 116 l37 49 5 155 5 156 35 44 35 44 0 676 0 676 -35 44 c-34 43 -35 46 -40 160 -5 114 -6 117 -40 160 -34 43 -35 46 -40 160 -5 114 -5 115 -43 164 -34 45 -37 54 -37 116 0 61 -3 71 -34 112 -19 24 -40 64 -46 89 -7 24 -25 60 -40 79 -15 19 -33 55 -40 80 -7 25 -25 61 -40 80 -15 19 -33 55 -40 80 -7 25 -25 61 -40 81 -16 19 -34 56 -40 81 -9 36 -28 63 -80 118 -54 57 -71 82 -80 120 -9 38 -26 63 -80 120 -55 58 -71 82 -81 122 -11 49 -29 68 -499 538 -458 457 -491 488 -536 499 -36 9 -66 29 -124 81 -53 48 -88 72 -120 80 -25 7 -61 25 -80 40 -19 15 -55 33 -80 40 -25 7 -61 25 -80 40 -19 15 -55 33 -80 40 -25 7 -61 25 -80 40 -19 15 -55 33 -80 40 -25 7 -61 25 -80 40 -19 15 -55 33 -80 40 -25 7 -61 25 -80 40 -19 15 -54 33 -77 39 -23 6 -65 27 -93 46 -44 30 -61 35 -109 35 -48 0 -65 6 -121 40 -64 39 -67 40 -160 40 -93 0 -96 1 -160 40 l-65 40 -135 0 -135 0 -65 40 -65 40 -1616 0 -1617 0 -52 -35z" fill="#FFFFFF" stroke="none"/></g></g></g></svg>