<svg xmlns="http://www.w3.org/2000/svg" viewBox="0 0 900 560"><g transform="translate(344.4,25) scale(4.4)"><g transform="translate(2.987,1.963) scale(0.031450)"><g transform="translate(0.000000,1408.000000) scale(0.100000,-0.100000)"><path d="M4560 13400 l-65 -40 -135 0 -135 0 -65 -40 c-55 -34 -73 -40 -120 -40 -47 0 -65 -6 -120 -40 -55 -34 -73 -40 -120 -40 -47 0 -65 -6 -120 -40 -56 -34 -73 -40 -121 -40 -48 0 -65 -5 -109 -35 -28 -19 -70 -40 -93 -46 -23 -6 -58 -24 -77 -39 -19 -15 -55 -33 -80 -40 -25 -7 -61 -25 -80 -40 -19 -15 -55 -33 -80 -40 -25 -7 -61 -25 -80 -40 -19 -15 -55 -33 -80 -40 -25 -7 -61 -25 -81 -40 -19 -16 -56 -34 -80 -40 -37 -9 -66 -31 -159 -120 -98 -93 -121 -111 -163 -121 -45 -11 -70 -33 -416 -379 -353 -351 -369 -369 -380 -418 -10 -40 -26 -64 -81 -122 -54 -57 -71 -82 -80 -120 -9 -38 -26 -63 -80 -120 -52 -55 -71 -82 -80 -118 -6 -25 -24 -62 -40 -81 -15 -20 -33 -56 -40 -81 -7 -25 -25 -61 -40 -80 -15 -19 -33 -55 -40 -80 -7 -25 -25 -61 -40 -80 -15 -19 -33 -55 -40 -79 -6 -25 -27 -65 -46 -89 -31 -41 -34 -51 -34 -112 0 -62 -3 -70 -40 -120 -37 -50 -40 -58 -40 -120 0 -62 -3 -71 -37 -116 -38 -49 -38 -50 -43 -164 -5 -114 -6 -117 -40 -160 l-35 -44 -5 -196 -5 -196 -35 -44 -35 -44 0 -396 0 -396 35 -44 35 -44 5 -196 5 -196 35 -44 c34 -43 35 -46 40 -160 5 -114 5 -115 43 -164 34 -45 37 -54 37 -116 0 -62 3 -70 40 -120 37 -50 40 -58 40 -120 0 -61 3 -71 34 -112 19 -24 40 -64 46 -89 7 -24 25 -60 40 -79 15 -19 33 -55 40 -80 7 -25 25 -61 40 -81 16 -19 34 -56 40 -81 9 -36 28 -63 80 -118 54 -57 71 -82 80 -120 9 -38 26 -63 80 -120 55 -58 71 -82 81 -122 11 -49 29 -68 499 -538 458 -457 491 -488 536 -499 36 -9 66 -29 124 -81 53 -48 88 -72 120 -80 25 -7 61 -25 80 -40 19 -15 55 -33 80 -40 31 -8 67 -32 120 -80 53 -48 89 -72 120 -80 25 -7 61 -25 80 -40 19 -15 54 -33 77 -39 23 -6 65 -27 93 -46 45 -30 60 -35 110 -35 50 0 65 -5 110 -35 28 -19 69 -39 90 -45 21 -6 62 -26 90 -45 50 -34 55 -35 149 -35 95 0 97 -1 161 -40 64 -39 67 -40 160 -40 93 0 96 -1 160 -40 l65 -40 1776 0 1777 0 52 35 c29 20 72 40 96 46 37 10 67 35 196 163 202 200 198 193 198 276 0 62 3 71 38 116 l37 49 0 155 0 155 -37 49 c-35 45 -38 54 -38 116 0 61 -3 71 -35 112 -19 25 -40 67 -46 94 -11 42 -28 63 -141 175 -110 109 -135 128 -175 138 -26 7 -63 25 -82 41 -20 15 -55 33 -78 39 -23 6 -65 27 -93 46 l-52 35 -1457 0 -1456 0 -65 40 c-64 39 -67 40 -160 40 -93 0 -96 1 -160 40 -55 34 -73 40 -120 40 -47 0 -65 6 -120 40 -56 34 -73 40 -121 40 -48 0 -65 5 -109 35 -28 19 -70 40 -93 46 -28 7 -66 33 -117 79 -56 50 -88 72 -121 80 -37 9 -66 31 -159 120 -96 92 -122 111 -161 120 -39 10 -63 27 -137 99 -78 77 -91 95 -102 140 -11 45 -24 64 -120 161 -94 96 -109 116 -120 159 -9 38 -25 63 -67 107 -92 97 -93 99 -93 174 0 61 -3 71 -34 112 -19 24 -40 64 -46 88 -6 24 -27 64 -46 88 -31 41 -34 51 -34 112 0 62 -3 71 -37 116 l-38 49 0 515 0 516 35 44 c34 43 35 46 40 160 5 114 5 115 43 164 34 45 37 54 37 116 0 61 3 71 34 112 19 24 40 64 46 89 7 24 25 60 40 80 16 19 34 57 41 83 10 39 28 64 119 156 96 98 109 116 120 162 12 48 24 63 181 218 149 148 174 169 216 179 35 9 66 29 123 81 53 48 88 72 120 80 25 7 61 25 80 40 19 15 55 33 80 40 25 7 61 25 80 40 19 15 54 33 77 39 23 6 65 27 93 46 44 30 61 35 109 35 48 0 65 6 121 40 55 34 73 40 120 40 47 0 65 6 120 40 l65 40 3535 0 3535 0 65 40 c56 34 73 40 121 40 49 0 65 5 109 35 29 20 72 40 96 46 33 9 62 30 132 98 75 74 91 95 101 136 7 27 25 65 41 84 15 20 33 56 40 81 7 25 26 63 44 84 l31 40 0 276 0 275 -37 49 c-35 45 -38 54 -38 116 0 55 -4 73 -22 96 -39 50 -301 306 -333 325 -19 12 -49 19 -85 19 -47 0 -65 6 -120 40 l-65 40 -3655 0 -3655 0 -65 -40z M5370 9645 c-28 -19 -70 -40 -93 -46 -23 -6 -58 -24 -78 -39 -19 -16 -56 -34 -81 -40 -68 -17 -141 -91 -157 -158 -10 -39 -25 -64 -68 -108 -92 -97 -93 -99 -93 -174 0 -62 -3 -71 -37 -116 l-38 -49 0 -195 0 -196 31 -40 c18 -21 37 -59 44 -84 7 -25 25 -61 40 -81 16 -19 34 -57 41 -84 11 -43 27 -63 141 -176 107 -105 136 -129 172 -138 24 -6 67 -26 96 -46 l52 -35 1417 0 1416 0 65 -40 65 -40 135 0 135 0 65 -40 c56 -34 73 -40 121 -40 48 0 65 -5 109 -35 28 -19 69 -39 90 -45 21 -6 62 -26 90 -45 44 -29 61 -35 107 -35 67 0 80 -7 168 -85 49 -43 85 -67 115 -75 25 -7 61 -25 81 -40 19 -16 57 -34 83 -41 44 -11 72 -37 375 -339 313 -312 329 -329 340 -377 10 -41 26 -65 81 -123 51 -54 71 -82 79 -117 7 -25 27 -66 46 -91 32 -41 35 -51 35 -112 0 -62 3 -70 40 -120 37 -50 40 -58 40 -120 0 -62 3 -71 38 -116 l37 -49 5 -155 5 -156 35 -44 35 -44 0 -196 0 -196 -35 -44 -35 -44 -5 -156 -5 -156 -35 -44 c-34 -43 -35 -46 -40 -160 -5 -111 -6 -117 -37 -156 -17 -21 -36 -59 -43 -84 -7 -25 -25 -61 -40 -80 -15 -19 -33 -55 -40 -80 -7 -25 -25 -61 -40 -81 -16 -19 -34 -57 -41 -84 -11 -45 -34 -70 -340 -375 -303 -302 -331 -328 -375 -339 -36 -9 -66 -29 -124 -81 -53 -48 -88 -72 -120 -80 -25 -7 -61 -25 -80 -40 -19 -15 -54 -33 -77 -39 -23 -6 -65 -27 -93 -46 -44 -30 -61 -35 -109 -35 -48 0 -65 -6 -121 -40 -64 -39 -67 -40 -160 -40 -93 0 -96 -1 -160 -40 l-65 -40 -3575 0 -3575 0 -65 -40 c-54 -33 -74 -40 -118 -40 -66 0 -79 -7 -167 -85 -46 -41 -85 -67 -112 -74 -54 -15 -70 -32 -84 -86 -8 -31 -27 -61 -66 -102 -92 -96 -93 -98 -93 -173 0 -62 -3 -71 -37 -116 l-38 -49 0 -195 0 -196 31 -40 c18 -21 37 -59 44 -84 7 -25 25 -61 40 -81 16 -19 34 -57 41 -84 11 -43 27 -63 141 -176 107 -105 136 -129 172 -138 24 -6 67 -26 96 -46 l52 -35 3897 0 3896 0 65 40 c64 39 67 40 160 40 93 0 96 1 160 40 55 34 73 40 120 40 47 0 65 6 120 40 56 34 73 40 121 40 48 0 65 5 109 35 28 19 70 40 93 46 23 6 58 24 77 39 19 15 55 33 80 40 25 7 61 25 80 40 19 15 55 33 80 40 25 7 61 25 80 40 19 15 55 33 80 40 25 7 61 25 80 40 19 15 55 33 80 40 32 8 67 32 120 80 58 52 88 72 124 81 45 11 78 42 536 499 470 470 488 489 499 538 10 40 26 64 81 122 54 57 71 82 80 120 9 38 26 63 80 120 51 54 71 82 79 117 7 25 27 66 46 91 32 41 35 51 35 112 0 61 3 71 34 112 19 24 40 64 46 88 6 24 27 64 46 88 31 41 34 51 34 112 0 62 3 70 40 120 37 50 40 58 40 120 0 62 3 71 38 116 l37 49 5 155 5 156 35 44 35 44 0 676 0 676 -35 44 c-34 43 -35 46 -40 160 -5 114 -6 117 -40 160 -34 43 -35 46 -40 160 -5 114 -5 115 -43 164 -34 45 -37 54 -37 116 0 61 -3 71 -34 112 -19 24 -40 64 -46 89 -7 24 -25 60 -40 79 -15 19 -33 55 -40 80 -7 25 -25 61 -40 80 -15 19 -33 55 -40 80 -7 25 -25 61 -40 81 -16 19 -34 56 -40 81 -9 36 -28 63 -80 118 -54 57 -71 82 -80 120 -9 38 -26 63 -80 120 -55 58 -71 82 -81 122 -11 49 -29 68 -499 538 -458 457 -491 488 -536 499 -36 9 -66 29 -124 81 -53 48 -88 72 -120 80 -25 7 -61 25 -80 40 -19 15 -55 33 -80 40 -25 7 -61 25 -80 40 -19 15 -55 33 -80 40 -25 7 -61 25 -80 40 -19 15 -55 33 -80 40 -25 7 -61 25 -80 40 -19 15 -55 33 -80 40 -25 7 -61 25 -80 40 -19 15 -54 33 -77 39 -23 6 -65 27 -93 46 -44 30 -61 35 -109 35 -48 0 -65 6 -121 40 -64 39 -67 40 -160 40 -93 0 -96 1 -160 40 l-65 40 -135 0 -135 0 -65 40 -65 40 -1616 0 -1617 0 -52 -35z" fill="#6C3CE9" stroke="none"/></g></g></g><g transform="translate(362.8,0)"><g transform="translate(0,320)"><path transform="translate(0.00,0) scale(0.040000,-0.040000)" d="M77 0V536H152V470Q176 507 215.5 527.5Q255 548 301 548Q356 548 402.0 520.0Q448 492 473 446Q497 496 542.5 522.0Q588 548 642 548Q696 548 741.5 522.0Q787 496 814.5 450.5Q842 405 842 348V0H767V319Q767 392 729.0 432.5Q691 473 633 473Q575 473 536.0 432.0Q497 391 497 319V0H422V319Q422 392 384.0 432.5Q346 473 288 473Q230 473 191.0 432.0Q152 391 152 319V0Z" fill="#3A3E4C"/>
<path transform="translate(37.82,0) scale(0.040000,-0.040000)" d="M232 -12Q181 -12 141.0 7.5Q101 27 78.0 61.0Q55 95 55 139Q55 201 96.0 247.0Q137 293 226 308L420 340V368Q420 416 385.0 446.0Q350 476 294 476Q245 476 208.0 451.5Q171 427 153 388L85 425Q100 459 132.5 487.0Q165 515 207.0 531.5Q249 548 294 548Q353 548 398.5 525.0Q444 502 469.5 461.5Q495 421 495 368V0H420V77Q394 38 344.0 13.0Q294 -12 232 -12ZM135 142Q135 106 163.5 81.0Q192 56 237 56Q292 56 333.0 79.5Q374 103 397.0 143.0Q420 183 420 232V272L244 243Q186 233 160.5 206.0Q135 179 135 142Z" fill="#3A3E4C"/>
<path transform="translate(62.20,0) scale(0.040000,-0.040000)" d="M319 -12Q244 -12 184.0 24.5Q124 61 89.5 124.5Q55 188 55 268Q55 349 89.5 412.0Q124 475 183.5 511.5Q243 548 319 548Q382 548 432.0 523.0Q482 498 515 455V757H590V0H515V87Q485 40 433.0 14.0Q381 -12 319 -12ZM323 63Q377 63 420.5 90.0Q464 117 489.5 163.5Q515 210 515 268Q515 326 489.5 372.5Q464 419 420.5 446.0Q377 473 323 473Q270 473 227.0 446.0Q184 419 159.5 373.0Q135 327 135 268Q135 210 159.5 163.5Q184 117 226.5 90.0Q269 63 323 63Z" fill="#3A3E4C"/>
<path transform="translate(90.38,0) scale(0.040000,-0.040000)" d="M321 -12Q246 -12 185.5 24.5Q125 61 90.0 125.0Q55 189 55 270Q55 351 89.0 413.5Q123 476 181.5 512.0Q240 548 313 548Q371 548 416.5 526.5Q462 505 494.0 468.5Q526 432 543.0 386.5Q560 341 560 293Q560 283 559.0 270.5Q558 258 556 245H134Q136 187 162.5 145.5Q189 104 231.0 81.0Q273 58 321 58Q380 58 420.0 86.0Q460 114 485 156L549 122Q533 86 500.0 55.5Q467 25 421.5 6.5Q376 -12 321 -12ZM313 478Q269 478 231.0 458.0Q193 438 167.5 401.5Q142 365 136 315H479Q478 363 455.5 399.5Q433 436 395.5 457.0Q358 478 313 478Z" fill="#3A3E4C"/>
<path transform="translate(124.78,0) scale(0.040000,-0.040000)" d="M348 -12Q286 -12 234.0 14.0Q182 40 152 87V0H77V757H152V455Q185 498 235.0 523.0Q285 548 348 548Q424 548 483.5 511.5Q543 475 577.5 412.0Q612 349 612 268Q612 188 577.5 124.5Q543 61 483.5 24.5Q424 -12 348 -12ZM344 63Q398 63 440.5 90.0Q483 117 507.5 163.5Q532 210 532 268Q532 327 507.5 373.0Q483 419 440.5 446.0Q398 473 344 473Q290 473 246.5 446.0Q203 419 177.5 372.5Q152 326 152 268Q152 210 177.5 163.5Q203 117 246.5 90.0Q290 63 344 63Z" fill="#3A3E4C"/>
<path transform="translate(152.96,0) scale(0.040000,-0.040000)" d="M88 -220Q72 -220 55.5 -217.5Q39 -215 23 -209V-139Q33 -140 48.5 -142.5Q64 -145 80 -145Q129 -145 155.0 -124.5Q181 -104 206 -46L225 0L11 536H92L267 94L442 536H525L280 -68Q264 -107 239.5 -142.0Q215 -177 178.0 -198.5Q141 -220 88 -220Z" fill="#3A3E4C"/></g></g><g transform="translate(232.4,0)"><g transform="translate(0,412)"><path transform="translate(0.00,0) scale(0.096000,-0.096000)" d="M338 -12Q267 -12 206.5 14.0Q146 40 102.5 86.5Q59 133 39 195L152 244Q179 179 230.0 143.0Q281 107 345 107Q398 107 430.5 131.5Q463 156 463 198Q463 231 443.5 252.0Q424 273 385 286L242 332Q155 360 111.0 413.5Q67 467 67 540Q67 604 98.5 653.0Q130 702 186.0 729.5Q242 757 316 757Q416 757 491.0 706.0Q566 655 596 571L484 521Q462 576 418.0 607.0Q374 638 316 638Q264 638 232.5 612.5Q201 587 201 546Q201 481 282 455L419 412Q597 355 597 206Q597 142 564.0 93.0Q531 44 472.5 16.0Q414 -12 338 -12Z" fill="#1A1D29"/>
<path transform="translate(92.11,0) scale(0.096000,-0.096000)" d="M72 0V745H567V625H208V434H547V314H208V120H567V0Z" fill="#1A1D29"/>
<path transform="translate(179.23,0) scale(0.096000,-0.096000)" d="M72 0V745H386Q496 745 559.0 689.0Q622 633 622 535Q622 497 607.5 463.0Q593 429 562 401Q612 368 632.0 323.5Q652 279 652 228Q652 120 581.5 60.0Q511 0 386 0ZM208 456H393Q435 456 460.0 480.5Q485 505 485 544Q485 583 460.0 606.0Q435 629 393 629H208ZM208 120H400Q452 120 484.0 149.5Q516 179 516 228Q516 277 484.0 307.0Q452 337 400 337H208Z" fill="#1A1D29"/>
<path transform="translate(275.57,0) scale(0.096000,-0.096000)" d="M72 0V745H386Q496 745 559.0 689.0Q622 633 622 535Q622 497 607.5 463.0Q593 429 562 401Q612 368 632.0 323.5Q652 279 652 228Q652 120 581.5 60.0Q511 0 386 0ZM208 456H393Q435 456 460.0 480.5Q485 505 485 544Q485 583 460.0 606.0Q435 629 393 629H208ZM208 120H400Q452 120 484.0 149.5Q516 179 516 228Q516 277 484.0 307.0Q452 337 400 337H208Z" fill="#1A1D29"/>
<path transform="translate(371.90,0) scale(0.096000,-0.096000)" d="M262 0V330L11 745H166L330 468L494 745H649L399 331V0Z" fill="#1A1D29"/></g></g><g transform="translate(130.7,0)"><g transform="translate(0,464)"><path transform="translate(0.00,0) scale(0.021000,-0.021000)" d="M220 0 11 745H114L277 133L447 745H550L718 134L882 745H985L776 0H667L498 605L329 0Z" fill="#1A1D29"/>
<path transform="translate(24.12,0) scale(0.021000,-0.021000)" d="M83 0V745H568V655H181V419H548V329H181V90H568V0Z" fill="#1A1D29"/>
<path transform="translate(40.04,0) scale(0.021000,-0.021000)" d="M83 0V745H396Q496 745 554.5 692.0Q613 639 613 550Q613 504 593.5 465.5Q574 427 537 401Q590 371 616.5 324.0Q643 277 643 221Q643 118 577.0 59.0Q511 0 397 0ZM181 439H394Q448 439 481.0 470.5Q514 502 514 551Q514 601 481.0 628.5Q448 656 394 656H181ZM181 90H401Q466 90 505.0 125.0Q544 160 544 220Q544 279 505.0 315.0Q466 351 401 351H181Z" fill="#1A1D29"/>
<path transform="translate(64.61,0) scale(0.021000,-0.021000)" d="M83 0V745H327Q440 745 524.0 698.5Q608 652 654.0 568.5Q700 485 700 373Q700 261 654.0 177.0Q608 93 524.0 46.5Q440 0 327 0ZM181 90H328Q410 90 471.0 124.5Q532 159 565.0 222.5Q598 286 598 373Q598 459 564.5 522.5Q531 586 470.5 620.5Q410 655 328 655H181Z" fill="#1A1D29"/>
<path transform="translate(83.37,0) scale(0.021000,-0.021000)" d="M83 0V745H568V655H181V419H548V329H181V90H568V0Z" fill="#1A1D29"/>
<path transform="translate(99.29,0) scale(0.021000,-0.021000)" d="M339 -12Q267 -12 208.5 14.5Q150 41 109.0 87.0Q68 133 50 190L135 225Q161 153 215.0 114.5Q269 76 341 76Q407 76 447.5 106.5Q488 137 488 189Q488 236 461.0 263.0Q434 290 384 305L247 347Q166 372 123.0 426.0Q80 480 80 550Q80 611 109.5 657.5Q139 704 191.5 730.5Q244 757 311 757Q378 757 432.5 733.0Q487 709 525.0 668.0Q563 627 581 576L497 541Q473 603 425.0 636.0Q377 669 312 669Q252 669 215.0 638.5Q178 608 178 556Q178 515 204.0 483.0Q230 451 283 434L408 397Q586 342 586 196Q586 135 554.5 88.0Q523 41 467.0 14.5Q411 -12 339 -12Z" fill="#1A1D29"/>
<path transform="translate(116.06,0) scale(0.021000,-0.021000)" d="M83 0V745H181V0Z" fill="#1A1D29"/>
<path transform="translate(124.80,0) scale(0.021000,-0.021000)" d="M427 -12Q348 -12 281.0 16.5Q214 45 164.5 96.5Q115 148 88.0 218.5Q61 289 61 372Q61 456 88.0 526.0Q115 596 164.0 648.0Q213 700 280.0 728.5Q347 757 426 757Q503 757 564.5 730.0Q626 703 668.5 659.5Q711 616 729 568L641 525Q615 590 559.5 628.0Q504 666 426 666Q348 666 287.5 629.0Q227 592 193.0 526.0Q159 460 159 372Q159 285 193.5 219.0Q228 153 288.5 116.0Q349 79 427 79Q495 79 549.5 108.0Q604 137 636.5 188.0Q669 239 669 306V310H426V395H768V329Q768 251 741.0 188.0Q714 125 666.5 80.5Q619 36 557.5 12.0Q496 -12 427 -12Z" fill="#1A1D29"/>
<path transform="translate(145.16,0) scale(0.021000,-0.021000)" d="M83 0V745H165L556 194V745H655V0H573L181 557V0Z" fill="#1A1D29"/><g transform="translate(212.7,0)"><path transform="translate(0.00,0) scale(0.021000,-0.021000)" d="M83 0V745H327Q440 745 524.0 698.5Q608 652 654.0 568.5Q700 485 700 373Q700 261 654.0 177.0Q608 93 524.0 46.5Q440 0 327 0ZM181 90H328Q410 90 471.0 124.5Q532 159 565.0 222.5Q598 286 598 373Q598 459 564.5 522.5Q531 586 470.5 620.5Q410 655 328 655H181Z" fill="#1A1D29"/>
<path transform="translate(18.76,0) scale(0.021000,-0.021000)" d="M83 0V745H568V655H181V419H548V329H181V90H568V0Z" fill="#1A1D29"/>
<path transform="translate(34.69,0) scale(0.021000,-0.021000)" d="M280 0 11 745H116L333 119L551 745H656L388 0Z" fill="#1A1D29"/>
<path transform="translate(51.89,0) scale(0.021000,-0.021000)" d="M83 0V745H568V655H181V419H548V329H181V90H568V0Z" fill="#1A1D29"/>
<path transform="translate(67.82,0) scale(0.021000,-0.021000)" d="M83 0V745H181V90H508V0Z" fill="#1A1D29"/>
<path transform="translate(82.26,0) scale(0.021000,-0.021000)" d="M439 -12Q360 -12 291.0 16.5Q222 45 170.5 96.5Q119 148 90.0 218.5Q61 289 61 373Q61 457 90.0 527.0Q119 597 170.5 648.5Q222 700 291.0 728.5Q360 757 439 757Q518 757 587.0 728.5Q656 700 707.5 648.5Q759 597 788.5 526.5Q818 456 818 373Q818 289 788.5 219.0Q759 149 707.5 97.0Q656 45 587.0 16.5Q518 -12 439 -12ZM439 79Q521 79 584.0 118.5Q647 158 683.0 224.5Q719 291 719 373Q719 454 683.0 520.5Q647 587 584.0 626.5Q521 666 439 666Q357 666 294.0 626.5Q231 587 195.0 520.5Q159 454 159 373Q159 291 195.0 224.5Q231 158 294.5 118.5Q358 79 439 79Z" fill="#1A1D29"/>
<path transform="translate(103.89,0) scale(0.021000,-0.021000)" d="M83 0V745H346Q420 745 476.0 716.5Q532 688 563.5 636.5Q595 585 595 515Q595 444 563.5 392.5Q532 341 476.0 313.0Q420 285 346 285H181V0ZM181 375H349Q415 375 455.5 412.5Q496 450 496 515Q496 580 455.5 617.5Q415 655 349 655H181Z" fill="#1A1D29"/>
<path transform="translate(120.64,0) scale(0.021000,-0.021000)" d="M83 0V745H173L429 381L683 745H773V0H674V561L432 220H424L181 565V0Z" fill="#1A1D29"/>
<path transform="translate(141.79,0) scale(0.021000,-0.021000)" d="M83 0V745H568V655H181V419H548V329H181V90H568V0Z" fill="#1A1D29"/>
<path transform="translate(157.72,0) scale(0.021000,-0.021000)" d="M83 0V745H165L556 194V745H655V0H573L181 557V0Z" fill="#1A1D29"/>
<path transform="translate(176.42,0) scale(0.021000,-0.021000)" d="M213 0V655H11V745H511V655H312V0Z" fill="#1A1D29"/></g><g transform="translate(452.0,0)"><path transform="translate(0.00,0) scale(0.021000,-0.021000)" d="M220 0 11 745H114L277 133L447 745H550L718 134L882 745H985L776 0H667L498 605L329 0Z" fill="#1A1D29"/>
<path transform="translate(24.12,0) scale(0.021000,-0.021000)" d="M83 0V745H568V655H181V419H548V329H181V90H568V0Z" fill="#1A1D29"/>
<path transform="translate(40.04,0) scale(0.021000,-0.021000)" d="M83 0V745H396Q496 745 554.5 692.0Q613 639 613 550Q613 504 593.5 465.5Q574 427 537 401Q590 371 616.5 324.0Q643 277 643 221Q643 118 577.0 59.0Q511 0 397 0ZM181 439H394Q448 439 481.0 470.5Q514 502 514 551Q514 601 481.0 628.5Q448 656 394 656H181ZM181 90H401Q466 90 505.0 125.0Q544 160 544 220Q544 279 505.0 315.0Q466 351 401 351H181Z" fill="#1A1D29"/>
<path transform="translate(57.77,0) scale(0.021000,-0.021000)" d="M339 -12Q267 -12 208.5 14.5Q150 41 109.0 87.0Q68 133 50 190L135 225Q161 153 215.0 114.5Q269 76 341 76Q407 76 447.5 106.5Q488 137 488 189Q488 236 461.0 263.0Q434 290 384 305L247 347Q166 372 123.0 426.0Q80 480 80 550Q80 611 109.5 657.5Q139 704 191.5 730.5Q244 757 311 757Q378 757 432.5 733.0Q487 709 525.0 668.0Q563 627 581 576L497 541Q473 603 425.0 636.0Q377 669 312 669Q252 669 215.0 638.5Q178 608 178 556Q178 515 204.0 483.0Q230 451 283 434L408 397Q586 342 586 196Q586 135 554.5 88.0Q523 41 467.0 14.5Q411 -12 339 -12Z" fill="#1A1D29"/>
<path transform="translate(74.54,0) scale(0.021000,-0.021000)" d="M83 0V745H181V0Z" fill="#1A1D29"/>
<path transform="translate(83.28,0) scale(0.021000,-0.021000)" d="M213 0V655H11V745H511V655H312V0Z" fill="#1A1D29"/>
<path transform="translate(97.45,0) scale(0.021000,-0.021000)" d="M83 0V745H568V655H181V419H548V329H181V90H568V0Z" fill="#1A1D29"/>
<path transform="translate(120.21,0) scale(0.021000,-0.021000)" d="M426 -12Q347 -12 280.0 16.5Q213 45 164.0 96.5Q115 148 88.0 218.5Q61 289 61 372Q61 456 88.0 526.0Q115 596 164.0 648.0Q213 700 280.0 728.5Q347 757 426 757Q503 757 564.5 730.0Q626 703 668.5 659.5Q711 616 729 568L639 527Q613 589 558.0 627.5Q503 666 426 666Q348 666 287.5 629.0Q227 592 193.0 526.0Q159 460 159 372Q159 285 193.0 219.0Q227 153 287.5 116.0Q348 79 426 79Q503 79 558.0 117.0Q613 155 639 218L729 177Q711 128 668.5 85.0Q626 42 564.5 15.0Q503 -12 426 -12Z" fill="#1A1D29"/>
<path transform="translate(139.76,0) scale(0.021000,-0.021000)" d="M11 0 278 745H394L661 0H556L495 175H177L116 0ZM208 265H464L336 633Z" fill="#1A1D29"/>
<path transform="translate(157.08,0) scale(0.021000,-0.021000)" d="M83 0V745H346Q420 745 476.0 716.5Q532 688 563.5 636.5Q595 585 595 515Q595 436 555.0 380.5Q515 325 447 302L620 0H506L345 285H181V0ZM181 375H349Q415 375 455.5 412.5Q496 450 496 515Q496 580 455.5 617.5Q415 655 349 655H181Z" fill="#1A1D29"/>
<path transform="translate(173.88,0) scale(0.021000,-0.021000)" d="M83 0V745H568V655H181V419H548V329H181V90H568V0Z" fill="#1A1D29"/></g><circle cx="186.7" cy="-6.7" r="3.4" fill="#6C3CE9"/><circle cx="426.0" cy="-6.7" r="3.4" fill="#6C3CE9"/></g></g></svg>